<mxfile host="app.diagrams.net" modified="2022-12-29T13:31:05.820Z" agent="5.0 (Macintosh; Intel Mac OS X 10_15_7) AppleWebKit/537.36 (KHTML, like Gecko) Chrome/108.0.0.0 Safari/537.36" version="20.7.4" etag="piiP2hldvJbu9gMTzhhf" type="github">
  <diagram id="xjxomUsJOC9vYhl664Ct" name="Page-1">
    <mxGraphModel dx="1739" dy="585" grid="1" gridSize="10" guides="1" tooltips="1" connect="1" arrows="1" fold="1" page="1" pageScale="1" pageWidth="850" pageHeight="1100" math="0" shadow="0">
      <root>
        <mxCell id="0" />
        <mxCell id="1" parent="0" />
        <mxCell id="xy5AybyZS4DWEqt7mpqy-1" value="&lt;font style=&quot;font-size: 18px;&quot;&gt;EIP-4844&lt;/font&gt;" style="rounded=1;whiteSpace=wrap;html=1;fillColor=#dae8fc;strokeColor=#6c8ebf;" vertex="1" parent="1">
          <mxGeometry x="170" y="470" width="120" height="60" as="geometry" />
        </mxCell>
        <mxCell id="xy5AybyZS4DWEqt7mpqy-9" value="&lt;font style=&quot;font-size: 15px;&quot;&gt;EIP itself&lt;/font&gt;" style="rounded=1;whiteSpace=wrap;html=1;fontSize=18;" vertex="1" parent="1">
          <mxGeometry x="-80" y="560" width="120" height="60" as="geometry" />
        </mxCell>
        <mxCell id="xy5AybyZS4DWEqt7mpqy-10" value="&lt;font style=&quot;font-size: 15px;&quot;&gt;Consensus Spec&lt;/font&gt;" style="rounded=1;whiteSpace=wrap;html=1;fontSize=18;" vertex="1" parent="1">
          <mxGeometry x="80" y="560" width="130" height="60" as="geometry" />
        </mxCell>
        <mxCell id="xy5AybyZS4DWEqt7mpqy-11" value="&lt;span style=&quot;font-size: 15px;&quot;&gt;Engine-API spec&lt;/span&gt;" style="rounded=1;whiteSpace=wrap;html=1;fontSize=18;" vertex="1" parent="1">
          <mxGeometry x="250" y="560" width="130" height="60" as="geometry" />
        </mxCell>
        <mxCell id="xy5AybyZS4DWEqt7mpqy-13" value="&lt;font style=&quot;font-size: 15px;&quot;&gt;Client implementation&lt;/font&gt;" style="rounded=1;whiteSpace=wrap;html=1;fontSize=18;" vertex="1" parent="1">
          <mxGeometry x="420" y="560" width="120" height="60" as="geometry" />
        </mxCell>
        <mxCell id="xy5AybyZS4DWEqt7mpqy-14" value="&lt;font style=&quot;font-size: 15px;&quot;&gt;KZG ceremony&lt;/font&gt;" style="rounded=1;whiteSpace=wrap;html=1;fontSize=18;" vertex="1" parent="1">
          <mxGeometry y="650" width="130" height="60" as="geometry" />
        </mxCell>
        <mxCell id="xy5AybyZS4DWEqt7mpqy-15" value="&lt;font style=&quot;font-size: 15px;&quot;&gt;Tooling, Devnets&lt;/font&gt;" style="rounded=1;whiteSpace=wrap;html=1;fontSize=18;" vertex="1" parent="1">
          <mxGeometry x="170" y="650" width="140" height="60" as="geometry" />
        </mxCell>
        <mxCell id="xy5AybyZS4DWEqt7mpqy-16" value="&lt;font style=&quot;font-size: 15px;&quot;&gt;Testing&lt;/font&gt;" style="rounded=1;whiteSpace=wrap;html=1;fontSize=18;" vertex="1" parent="1">
          <mxGeometry x="350" y="650" width="140" height="60" as="geometry" />
        </mxCell>
      </root>
    </mxGraphModel>
  </diagram>
</mxfile>
